# xmcd
#
# Track frame offsets:
#	150
#	10830
#	21190
#	31097
#	42167
#	52472
#	63995
#	74938
#	86093
#	97958
#	108422
#	120082
#	131360
#	143081
#	155604
#	170013
#	180362
#	192402
#	203820
#	216152
# Disc length: 3032 seconds
# Revision: 1
# Processed by: cddbd v1.5.2PL0 Copyright (c) Steve Scherf et al.
#
# Submitted via: libkcddb 0.31
#
DISCID=1b0bd614
DTITLE=Patsy Cline - 20 Best of Patsy Cline
DYEAR=1900
DGENRE=Country
TTITLE0=Honky Tonk Merry Go Round
TTITLE1=Three Cigarettes In An Ashtray
TTITLE2=Turn The Cards Slowly
TTITLE3=A Stranger In My Arms
TTITLE4=Pick Me Up (On Your Way Down)
TTITLE5=I've Loved And Lost Again
TTITLE6=There He Goes
TTITLE7=Stop The World And Let Me Off
TTITLE8=If I Could Only Stay Asleep
TTITLE9=Lovesick Blues
TTITLE10=Never No More
TTITLE11=Just Out Of Reach
TTITLE12=Walkin' After Midnight
TTITLE13=Fingerprints
TTITLE14=Then You'll Know
TTITLE15=I Love You Honey
TTITLE16=Today, Tomorrow, Forever
TTITLE17=Crazy Dreams
TTITLE18=A Poor Man's Roses
TTITLE19=Dear God
EXTD=
EXTT0=
EXTT1=
EXTT2=
EXTT3=
EXTT4=
EXTT5=
EXTT6=
EXTT7=
EXTT8=
EXTT9=
EXTT10=
EXTT11=
EXTT12=
EXTT13=
EXTT14=
EXTT15=
EXTT16=
EXTT17=
EXTT18=
EXTT19=
PLAYORDER=
